<?xml version="1.0" encoding="UTF-8"?>
<svg xmlns="http://www.w3.org/2000/svg" xmlns:xlink="http://www.w3.org/1999/xlink" width="375pt" height="374.999991pt" viewBox="0 0 375 374.999991" version="1.2">
<g id="surface1">
<path style=" stroke:none;fill-rule:nonzero;fill:rgb(100%,94.509888%,0%);fill-opacity:1;" d="M 38.980469 32.132812 C 38.167969 33.28125 37.355469 34.410156 36.566406 35.601562 C -23.445312 127.269531 2.164062 250.222656 93.835938 310.261719 C 185.515625 370.328125 308.503906 344.660156 368.542969 253.027344 C 369.324219 251.84375 370.007812 250.660156 370.742188 249.425781 L 38.980469 32.136719 "/>
<path style=" stroke:none;fill-rule:nonzero;fill:rgb(100%,100%,100%);fill-opacity:1;" d="M 48.074219 38.109375 C 47.308594 39.265625 46.492188 40.390625 45.707031 41.554688 C -11.003906 128.195312 13.195312 244.40625 99.816406 301.152344 C 186.480469 357.882812 302.679688 333.65625 359.425781 247.042969 C 360.183594 245.882812 360.867188 244.671875 361.597656 243.441406 L 48.074219 38.109375 "/>
<path style=" stroke:none;fill-rule:nonzero;fill:rgb(100%,94.509888%,0%);fill-opacity:1;" d="M 211.441406 145.078125 C 214.113281 155.453125 250.523438 201.238281 273.59375 227.625 C 282.96875 238.332031 299.359375 271.921875 317.71875 269.433594 C 324.457031 268.503906 337.664062 258.191406 352.761719 237.671875 L 211.441406 145.078125 "/>
<path style=" stroke:none;fill-rule:nonzero;fill:rgb(100%,94.509888%,0%);fill-opacity:1;" d="M 198.964844 311.054688 C 183.734375 300.421875 194.425781 264.648438 194.742188 250.390625 C 195.695312 209.171875 201.371094 135.652344 207.511719 147.507812 C 213.636719 159.320312 236.242188 194.914062 255.503906 226.699219 C 269.335938 249.523438 289.792969 277.964844 288.707031 288.203125 C 287.875 296.175781 279.769531 301.117188 271.847656 304.902344 C 232.679688 316.828125 206.289062 316.132812 198.964844 311.054688 "/>
<path style=" stroke:none;fill-rule:nonzero;fill:rgb(100%,94.509888%,0%);fill-opacity:1;" d="M 57.839844 44.480469 C 50.894531 54.128906 43.304688 67.226562 35.964844 83.898438 C 33.660156 92.347656 32.132812 101.734375 37.632812 107.605469 C 44.625 115.0625 79.566406 118.125 105.835938 122.558594 C 142.539062 128.707031 184.210938 134.824219 197.195312 137.886719 C 198.574219 138.203125 199.1875 137.898438 199.210938 137.09375 L 57.839844 44.480469 "/>
<path style=" stroke:none;fill-rule:nonzero;fill:rgb(100%,94.509888%,0%);fill-opacity:1;" d="M 155.378906 303.9375 C 173.152344 298.605469 174.078125 261.242188 178.203125 247.59375 C 190.117188 208.109375 207.535156 136.484375 198.039062 145.820312 C 188.46875 155.171875 155.964844 181.976562 127.78125 206.21875 C 107.554688 223.621094 79.273438 244.335938 77.164062 254.371094 C 75.476562 262.21875 81.617188 269.457031 87.976562 275.449219 C 121.519531 298.984375 146.824219 306.515625 155.378906 303.9375 "/>
<path style=" stroke:none;fill-rule:nonzero;fill:rgb(100%,94.509888%,0%);fill-opacity:1;" d="M 31.855469 141.132812 C 41.867188 125.4375 78.066406 134.726562 92.285156 134.480469 C 133.503906 133.773438 207.179688 136.410156 195.632812 143.039062 C 184.039062 149.679688 149.386719 173.699219 118.417969 194.195312 C 96.242188 208.949219 68.605469 230.554688 58.316406 229.898438 C 50.320312 229.359375 45.058594 221.460938 40.960938 213.699219 C 27.445312 175.066406 27.082031 148.640625 31.855469 141.132812 "/>
</g>
</svg>
